<svg xmlns="http://www.w3.org/2000/svg" xmlns:xlink="http://www.w3.org/1999/xlink" width="1000" zoomAndPan="magnify" viewBox="0 0 750 749.999995" height="1000" preserveAspectRatio="xMidYMid meet" version="1.0"><defs><clipPath id="0b2f911f92"><path d="M 64.4375 64.4375 L 685.4375 64.4375 L 685.4375 685.4375 L 64.4375 685.4375 Z M 64.4375 64.4375 " clip-rule="nonzero"/></clipPath><clipPath id="ac69d5ad4b"><path d="M 81 81 L 668.890625 81 L 668.890625 670.082031 L 81 670.082031 Z M 81 81 " clip-rule="nonzero"/></clipPath><clipPath id="d4ef6eb4cc"><path d="M 112 337 L 645 337 L 645 670.082031 L 112 670.082031 Z M 112 337 " clip-rule="nonzero"/></clipPath></defs><g clip-path="url(#0b2f911f92)"><path fill="#5e17eb" d="M 374.996094 64.4375 C 203.636719 64.4375 64.4375 203.636719 64.4375 374.996094 C 64.4375 546.351562 203.636719 685.554688 374.996094 685.554688 C 546.351562 685.554688 685.554688 546.351562 685.554688 374.996094 C 685.554688 203.636719 546.351562 64.4375 374.996094 64.4375 Z M 374.996094 91.441406 C 531.757812 91.441406 658.546875 218.234375 658.546875 374.996094 C 658.546875 531.757812 531.757812 658.546875 374.996094 658.546875 C 218.234375 658.546875 91.441406 531.757812 91.441406 374.996094 C 91.441406 218.234375 218.234375 91.441406 374.996094 91.441406 Z M 374.996094 91.441406 " fill-opacity="1" fill-rule="nonzero"/></g><g clip-path="url(#ac69d5ad4b)"><path fill="#f3a61e" d="M 668.683594 375.976562 C 668.683594 417.359375 660.148438 456.761719 644.691406 492.449219 C 599.636719 596.914062 495.804688 670.027344 374.902344 670.027344 C 254.003906 670.027344 160.308594 603.886719 112.121094 507.507812 C 92.292969 467.941406 81.121094 423.257812 81.121094 375.976562 C 81.121094 213.582031 212.65625 81.96875 374.902344 81.96875 C 537.148438 81.96875 668.683594 213.582031 668.683594 375.976562 Z M 668.683594 375.976562 " fill-opacity="1" fill-rule="nonzero"/></g><g clip-path="url(#d4ef6eb4cc)"><path fill="#3d3b3c" d="M 644.691406 492.449219 C 599.636719 596.914062 495.804688 670.027344 374.902344 670.027344 C 254.003906 670.027344 160.308594 603.886719 112.121094 507.507812 C 120.613281 502.765625 130.175781 498.925781 140.851562 496.039062 C 177.167969 486.300781 230.917969 473.675781 230.917969 473.675781 L 247.449219 432.832031 L 244.808594 338.804688 C 244.808594 338.804688 281.457031 335.996094 301.53125 338.804688 C 321.605469 341.566406 397.246094 372.140625 397.246094 372.140625 L 439.703125 345.898438 C 439.703125 345.898438 472.554688 342.0625 488.878906 342.929688 C 505.203125 343.835938 526.636719 438.566406 526.636719 438.566406 L 542.300781 465.753906 C 542.300781 465.753906 569.753906 479.246094 606.8125 486.839844 C 621.566406 489.851562 633.851562 490.46875 644.691406 492.449219 Z M 644.691406 492.449219 " fill-opacity="1" fill-rule="nonzero"/></g><path fill="#56352c" d="M 286.839844 274.453125 C 286.839844 274.453125 264.746094 259.160156 260.242188 253.398438 C 255.734375 247.636719 246.019531 234.570312 239.960938 219.03125 C 233.898438 203.488281 216.121094 181.402344 222.648438 167.429688 C 229.171875 153.457031 263.402344 124.835938 263.402344 124.835938 C 263.402344 124.835938 269.582031 86.632812 297.421875 74.886719 C 325.257812 63.128906 413.980469 58.09375 460.503906 81.941406 C 484.414062 94.195312 514.558594 98.363281 521.867188 107.09375 C 521.867188 107.09375 509.144531 109.542969 503.441406 119.171875 C 501.4375 122.566406 517.375 132.316406 519.640625 134.519531 C 532.695312 147.144531 539.207031 145.398438 539.207031 145.398438 C 539.207031 145.398438 523.558594 151.929688 506.164062 149.316406 C 506.164062 149.316406 517.03125 158.023438 529.644531 181.527344 C 542.257812 205.03125 531.816406 214.753906 531.816406 214.753906 C 531.816406 214.753906 533.425781 201.988281 509.132812 197.203125 C 509.132812 197.203125 511.273438 209.871094 506.148438 223.582031 C 501.023438 237.292969 482.226562 258.582031 482.226562 258.582031 L 374.890625 327.347656 L 286.828125 274.441406 Z M 286.839844 274.453125 " fill-opacity="1" fill-rule="nonzero"/><path fill="#da8059" d="M 277.621094 263.65625 C 277.621094 263.65625 268.636719 240.539062 254.648438 242.753906 C 240.660156 244.96875 236.207031 270.671875 243.242188 294.382812 C 250.265625 318.089844 265.710938 341.527344 282.238281 328.96875 C 294.8125 319.410156 277.621094 263.65625 277.621094 263.65625 Z M 277.621094 263.65625 " fill-opacity="1" fill-rule="nonzero"/><path fill="#da8059" d="M 472.609375 254.359375 C 472.609375 254.359375 478.667969 231.804688 491.984375 232.4375 C 505.296875 233.070312 512.097656 256.699219 507.9375 279.609375 C 503.785156 302.535156 491.707031 326.054688 474.960938 315.988281 C 462.207031 308.328125 472.609375 254.359375 472.609375 254.359375 Z M 472.609375 254.359375 " fill-opacity="1" fill-rule="nonzero"/><path fill="#fbc092" d="M 488.878906 466.210938 L 471.523438 516.875 L 335.824219 546.125 L 263.402344 475.820312 C 263.402344 475.820312 296.089844 460.515625 303.097656 443.476562 C 305.570312 437.371094 305.570312 425.15625 304.539062 411.953125 C 302.644531 388.1875 297.40625 361.246094 297.40625 361.246094 L 455.820312 353.078125 C 455.820312 353.078125 454.417969 378.039062 454.003906 402.300781 C 453.675781 420.742188 453.921875 438.8125 455.820312 445.25 C 460.1875 460.101562 488.878906 466.210938 488.878906 466.210938 Z M 488.878906 466.210938 " fill-opacity="1" fill-rule="nonzero"/><path fill="#da8059" d="M 455.820312 353.078125 C 455.820312 353.078125 454.417969 378.039062 454.003906 402.300781 C 429.890625 425.199219 388.792969 462.371094 356.929688 457.667969 C 334.710938 454.410156 313.292969 437.371094 304.539062 411.953125 C 302.644531 388.1875 297.40625 361.246094 297.40625 361.246094 Z M 455.820312 353.078125 " fill-opacity="1" fill-rule="nonzero"/><path fill="#fbc092" d="M 269.609375 248.144531 C 269.609375 248.144531 279.132812 317.238281 278.445312 331.871094 C 277.773438 346.503906 279.464844 357.054688 288.640625 364.546875 C 297.820312 372.03125 344.414062 414.582031 362.082031 417.304688 C 379.753906 420.027344 395.746094 419.007812 407.644531 411.859375 C 419.542969 404.707031 455.585938 375.097656 464.089844 367.957031 C 472.597656 360.820312 475.316406 353.351562 475.316406 333.425781 C 475.316406 313.496094 473.613281 263.808594 475.316406 235.230469 C 476.15625 221.203125 469.203125 136.195312 469.203125 136.195312 L 350.527344 103.863281 L 283.542969 134.492188 L 254.632812 162.066406 L 269.597656 248.171875 Z M 269.609375 248.144531 " fill-opacity="1" fill-rule="nonzero"/><path stroke-linecap="round" transform="matrix(1.374024, 0, 0, 1.375281, 81.122598, 40.202021)" fill="none" stroke-linejoin="round" d="M 206.619956 148.359705 C 206.619956 148.359705 210.79053 184.309749 209.659045 190.140945 " stroke="#da8059" stroke-width="6" stroke-opacity="1" stroke-miterlimit="4"/><path stroke-linecap="round" transform="matrix(1.374024, 0, 0, 1.375281, 81.122598, 40.202021)" fill="none" stroke-linejoin="round" d="M 145.909262 144.011162 C 145.909262 144.011162 167.239739 127.869572 178.000216 127.099843 C 188.760693 126.330114 192.030058 128.448999 192.030058 128.448999 " stroke="#7d2929" stroke-width="6" stroke-opacity="1" stroke-miterlimit="4"/><path stroke-linecap="round" transform="matrix(1.374024, 0, 0, 1.375281, 81.122598, 40.202021)" fill="none" stroke-linejoin="round" d="M 230.079785 128.440478 C 230.079785 128.440478 234.119584 127.139608 242.568761 126.929423 C 251.020782 126.719239 269.280898 139.770551 269.280898 139.770551 " stroke="#7d2929" stroke-width="6" stroke-opacity="1" stroke-miterlimit="4"/><path fill="#3d1119" d="M 336.25 257.730469 C 336.339844 258.667969 336.371094 259.605469 336.34375 260.535156 C 336.316406 261.46875 336.230469 262.378906 336.085938 263.269531 C 335.941406 264.160156 335.742188 265.007812 335.488281 265.820312 C 335.234375 266.632812 334.929688 267.390625 334.574219 268.09375 C 334.21875 268.800781 333.824219 269.433594 333.382812 270.003906 C 332.941406 270.570312 332.464844 271.0625 331.953125 271.472656 C 331.441406 271.882812 330.90625 272.207031 330.34375 272.445312 C 329.78125 272.683594 329.207031 272.832031 328.617188 272.886719 C 328.027344 272.941406 327.433594 272.90625 326.835938 272.777344 C 326.242188 272.648438 325.652344 272.433594 325.074219 272.125 C 324.496094 271.816406 323.933594 271.425781 323.394531 270.949219 C 322.855469 270.472656 322.34375 269.921875 321.863281 269.296875 C 321.386719 268.671875 320.945312 267.984375 320.542969 267.234375 C 320.140625 266.484375 319.785156 265.6875 319.476562 264.839844 C 319.171875 263.992188 318.914062 263.117188 318.714844 262.203125 C 318.511719 261.292969 318.367188 260.371094 318.277344 259.429688 C 318.1875 258.492188 318.15625 257.554688 318.1875 256.621094 C 318.214844 255.691406 318.300781 254.777344 318.445312 253.890625 C 318.589844 253 318.785156 252.148438 319.042969 251.335938 C 319.296875 250.527344 319.597656 249.765625 319.953125 249.0625 C 320.308594 248.359375 320.707031 247.722656 321.148438 247.15625 C 321.589844 246.585938 322.066406 246.097656 322.578125 245.6875 C 323.089844 245.273438 323.625 244.949219 324.1875 244.710938 C 324.746094 244.472656 325.324219 244.328125 325.914062 244.273438 C 326.503906 244.214844 327.097656 244.253906 327.691406 244.378906 C 328.289062 244.507812 328.875 244.726562 329.457031 245.035156 C 330.035156 245.34375 330.59375 245.734375 331.132812 246.210938 C 331.675781 246.6875 332.183594 247.234375 332.664062 247.859375 C 333.144531 248.484375 333.585938 249.171875 333.988281 249.921875 C 334.386719 250.671875 334.742188 251.472656 335.050781 252.320312 C 335.359375 253.164062 335.613281 254.042969 335.816406 254.953125 C 336.019531 255.863281 336.164062 256.789062 336.25 257.730469 Z M 336.25 257.730469 " fill-opacity="1" fill-rule="nonzero"/><path fill="#3d1119" d="M 419.152344 239.246094 C 419.738281 239.355469 420.296875 239.554688 420.835938 239.84375 C 421.371094 240.128906 421.878906 240.503906 422.347656 240.957031 C 422.820312 241.414062 423.25 241.945312 423.640625 242.550781 C 424.027344 243.15625 424.367188 243.824219 424.65625 244.558594 C 424.945312 245.292969 425.179688 246.074219 425.359375 246.90625 C 425.539062 247.738281 425.660156 248.601562 425.726562 249.5 C 425.789062 250.398438 425.792969 251.316406 425.734375 252.246094 C 425.679688 253.175781 425.566406 254.105469 425.390625 255.035156 C 425.21875 255.960938 424.992188 256.871094 424.707031 257.757812 C 424.421875 258.648438 424.089844 259.5 423.707031 260.3125 C 423.324219 261.128906 422.898438 261.890625 422.429688 262.601562 C 421.964844 263.3125 421.460938 263.957031 420.929688 264.539062 C 420.394531 265.117188 419.835938 265.617188 419.253906 266.042969 C 418.675781 266.46875 418.082031 266.808594 417.476562 267.0625 C 416.875 267.316406 416.269531 267.480469 415.664062 267.554688 C 415.058594 267.628906 414.464844 267.609375 413.882812 267.503906 C 413.296875 267.394531 412.738281 267.195312 412.199219 266.90625 C 411.664062 266.621094 411.160156 266.246094 410.6875 265.792969 C 410.214844 265.335938 409.785156 264.804688 409.394531 264.199219 C 409.007812 263.59375 408.667969 262.925781 408.378906 262.191406 C 408.089844 261.457031 407.855469 260.675781 407.675781 259.84375 C 407.496094 259.011719 407.375 258.148438 407.308594 257.25 C 407.246094 256.351562 407.242188 255.433594 407.300781 254.503906 C 407.355469 253.574219 407.472656 252.644531 407.644531 251.714844 C 407.816406 250.789062 408.046875 249.878906 408.328125 248.992188 C 408.613281 248.101562 408.945312 247.25 409.328125 246.4375 C 409.710938 245.621094 410.136719 244.859375 410.605469 244.148438 C 411.070312 243.4375 411.574219 242.792969 412.105469 242.210938 C 412.640625 241.632812 413.199219 241.132812 413.78125 240.707031 C 414.359375 240.28125 414.953125 239.941406 415.558594 239.6875 C 416.164062 239.433594 416.765625 239.269531 417.371094 239.195312 C 417.976562 239.121094 418.570312 239.136719 419.152344 239.246094 Z M 419.152344 239.246094 " fill-opacity="1" fill-rule="nonzero"/><path stroke-linecap="round" transform="matrix(1.374024, 0, 0, 1.375281, 81.122598, 40.202021)" fill="none" stroke-linejoin="round" d="M 174.278825 217.109868 C 174.278825 217.109868 186.560267 230.470776 203.148743 230.470776 C 229.650504 230.470776 244.120999 217.109868 244.120999 217.109868 " stroke="#7d2929" stroke-width="3" stroke-opacity="1" stroke-miterlimit="4"/><path fill="#3d3b3c" d="M 382.117188 530.984375 C 382.117188 530.984375 343.917969 520.988281 316.824219 496.699219 C 289.726562 472.410156 263.441406 444.492188 252.121094 410.496094 C 240.796875 376.5 247.875 367.105469 261.4375 363.050781 L 244.78125 338.789062 C 244.78125 338.789062 207.65625 338.996094 202.421875 355.183594 C 197.1875 371.382812 226.933594 420.441406 226.21875 427.824219 C 225.503906 435.210938 214.992188 431.632812 201.804688 439.019531 C 188.625 446.40625 189.339844 471.890625 203.371094 490.9375 C 217.410156 509.984375 233.335938 548.230469 260.089844 556.6875 C 286.839844 565.148438 368.554688 546.140625 368.554688 546.140625 C 368.554688 546.140625 428.820312 567.964844 468.597656 555.285156 C 508.375 542.605469 547.328125 491.390625 557.660156 481.996094 C 567.980469 472.605469 577.378906 468.367188 567.980469 455.21875 C 558.597656 442.074219 542.628906 430.328125 542.628906 430.328125 C 542.628906 430.328125 557.648438 370.914062 547.796875 357.164062 C 537.945312 343.410156 488.863281 342.941406 488.863281 342.941406 C 488.863281 342.941406 496.640625 366.28125 495.238281 375.992188 C 493.839844 385.699219 502.027344 383.417969 503.691406 396.027344 C 505.710938 411.363281 401.917969 525.484375 382.117188 530.984375 Z M 382.117188 530.984375 " fill-opacity="1" fill-rule="nonzero"/><path fill="#56352c" d="M 271.011719 258.597656 C 271.011719 258.597656 274.40625 245.574219 275.535156 232.425781 C 276.660156 219.277344 269.046875 184.566406 275.535156 176.65625 C 279.09375 172.324219 295.582031 159.464844 313.292969 153.113281 C 327.855469 147.886719 343.78125 148.863281 349.414062 147.019531 C 357.371094 144.421875 388.988281 138.011719 411.824219 145.355469 C 434.660156 152.699219 450.363281 165.089844 453.195312 184.839844 C 456.011719 204.601562 469.324219 239.164062 475.414062 238.257812 C 481.5 237.347656 482.132812 124.769531 482.132812 124.769531 L 407.660156 95.324219 L 310.199219 98.542969 L 239.960938 161.570312 Z M 271.011719 258.597656 " fill-opacity="1" fill-rule="nonzero"/></svg>